PathFileType	3	(X/Y/Z)	C:\Users\koon_\Desktop\
DataRate	CameraRate	NumFrames	NumMarkers	Units	OrigDataRate	OrigDataStartFrame	OrigNumFrames
100.0	100.0	8	27	mm	100.0	1795	3589	
Frame#	Time	get:LFHD			get:RFHD			get:LBHD			get:RBHD			get:C7			get:T10			get:CLAV			get:STRN			get:RBAK			get:LSHO			get:LUPA			get:LELB			get:LFRA			get:LWRA			get:LWRB			get:LFIN			get:RSHO			get:RUPA			get:RELB			get:RFRA			get:RWRA			get:RWRB			get:RFIN			get:LASI			get:RASI			get:LPSI			get:RPSI			
		X1	Y1	Z1	X2	Y2	Z2	X3	Y3	Z3	X4	Y4	Z4	X5	Y5	Z5	X6	Y6	Z6	X7	Y7	Z7	X8	Y8	Z8	X9	Y9	Z9	X10	Y10	Z10	X11	Y11	Z11	X12	Y12	Z12	X13	Y13	Z13	X14	Y14	Z14	X15	Y15	Z15	X16	Y16	Z16	X17	Y17	Z17	X18	Y18	Z18	X19	Y19	Z19	X20	Y20	Z20	X21	Y21	Z21	X22	Y22	Z22	X23	Y23	Z23	X24	Y24	Z24	X25	Y25	Z25	X26	Y26	Z26	X27	Y27	Z27	
1795	17.94	-292.15613	1364.783	-41.208153	-291.99786	1367.0547	-191.3976	-162.11346	1408.8044	-44.697792	-166.33699	1403.5962	-197.15115	-59.09565	1249.6362	-147.9637	83.00267	1089.0238	-176.79436	-172.56197	1077.8273	-105.37098	-122.40892	928.73126	-115.78339	-33.629986	1196.8745	-254.17984	-80.443779	1217.6176	24.121675	-43.691727	1022.0441	122.67731	40.614029	936.20013	162.69907	-42.856342	971.75928	154.88618	-191.9157	982.76379	95.229256	-198.30798	924.8504	141.73708	-268.5412	954.70587	143.81935	-185.40434	1202.036	-252.55844	-170.63599	1088.8134	-340.99875	-55.919315	909.46759	-401.67969	-190.43484	950.81232	-336.73444	-274.7265	960.85425	-290.96597	-269.84998	892.75531	-313.5863	-340.92981	934.66956	-323.84171	62.112553	816.36676	-23.448572	-57.116138	846.44702	-288.17697	190.58585	877.50342	-180.47516	160.5071	874.10663	-265.14029
1796	17.95	-294.61124	1363.8984	-43.596687	-292.9617	1366.3262	-194.01826	-164.5322	1407.8809	-45.751686	-167.00853	1402.8585	-198.61281	-60.484657	1249.0223	-147.66	82.283852	1089.0724	-175.09441	-174.31561	1076.709	-106.75219	-123.28275	927.84857	-116.83688	-33.681683	1196.6095	-253.66139	-84.442352	1216.6218	24.156828	-51.868797	1021.0789	123.70061	30.20322	934.07385	166.13933	-52.539459	970.78583	156.70844	-200.65227	982.9173	94.727615	-208.39732	925.41266	141.53639	-278.30521	956.07892	142.25989	-185.4776	1201.1592	-253.7733	-170.9003	1087.5481	-341.68646	-57.304241	907.00616	-400.94229	-192.31213	949.78882	-337.83276	-277.14618	960.80994	-293.61307	-272.58035	892.61731	-316.08804	-342.90082	935.38232	-327.59796	60.678631	815.99225	-22.223394	-55.876343	846.11554	-288.8515	190.75417	877.82568	-178.02354	161.59424	874.47449	-263.05774
1797	17.96	-297.01855	1362.9728	-45.865467	-293.9873	1365.4133	-196.1385	-166.91434	1406.9036	-46.818386	-168.15068	1401.8124	-199.25038	-61.916168	1248.3672	-147.30841	81.567894	1089.0992	-173.31876	-176.00839	1075.4973	-108.07489	-124.16147	926.92682	-117.72159	-33.812817	1196.2821	-253.04532	-88.406075	1215.6506	23.997665	-60.067436	1020.1365	124.54366	19.803318	932.28503	169.21402	-62.323887	969.78296	158.3311	-209.56313	983.04248	94.208282	-218.5649	925.89044	141.16916	-288.20914	957.31012	140.69902	-185.68076	1200.2999	-254.92953	-170.85405	1086.7585	-342.4938	-59.06781	904.53278	-400.29886	-194.29915	948.86768	-339.10535	-279.66412	960.79242	-296.00262	-275.6062	892.53906	-318.44266	-345.12399	936.26154	-331.25903	59.24987	815.65833	-21.473469	-54.353771	845.54425	-289.44986	190.87283	878.04163	-175.67236	162.68076	874.84515	-261.0658
1798	17.97	-299.35583	1362.0175	-48.097393	-294.9599	1364.4972	-198.27574	-169.27542	1405.8754	-47.848095	-168.87901	1401.0024	-200.58377	-63.307388	1247.6954	-146.93535	80.844238	1089.1333	-171.47804	-177.68777	1074.3363	-109.35643	-125.18184	925.99597	-118.86304	-33.991333	1195.8988	-252.47353	-92.26976	1214.6807	23.897377	-68.269257	1019.3045	125.26334	9.2555313	930.49493	172.17586	-72.107582	968.76575	159.80443	-218.71648	983.09521	93.554405	-228.80386	926.20892	140.65565	-298.16742	958.28473	139.15993	-185.84772	1199.4698	-255.96193	-171.30861	1085.2701	-342.65494	-61.219608	901.93597	-399.59302	-196.56288	947.90601	-340.12814	-282.50369	960.7323	-298.02103	-278.82437	892.56512	-320.71161	-347.5777	937.14764	-334.63998	57.878883	815.23138	-20.645493	-52.498196	845.76581	-289.24329	190.97397	878.28156	-173.27289	163.66113	875.19623	-259.04004
1799	17.98	-301.67224	1361.0698	-50.157463	-295.98743	1363.5513	-200.19493	-171.50763	1404.8464	-48.737503	-169.84999	1400.0184	-201.44083	-64.717415	1247.0038	-146.57854	80.112923	1089.1364	-169.67952	-179.39548	1073.1135	-110.66204	-125.95763	925.09857	-119.59863	-34.253632	1195.4797	-251.94446	-96.221024	1213.6803	23.867514	-76.470207	1018.5173	125.91888	-1.5310651	928.43805	174.68344	-82.003227	967.70758	161.18947	-228.04419	983.09283	92.690582	-239.1796	926.3161	139.94225	-308.20221	958.96033	137.37062	-185.89363	1198.0989	-256.92419	-171.993	1084.4823	-343.64493	-63.665218	899.19403	-398.70941	-199.01561	947.02313	-341.2543	-285.4964	960.83929	-300.18146	-282.37006	892.64752	-322.91232	-350.37601	937.98712	-337.60474	56.396877	814.6405	-19.671139	-50.657719	845.92963	-288.97821	191.02753	878.51245	-170.9212	164.66386	875.57324	-256.93823
1800	17.99	-303.84283	1360.0255	-52.147861	-297.00378	1362.6417	-202.14996	-173.76057	1403.8074	-49.598724	-170.9046	1399.0369	-202.1879	-66.152672	1246.2716	-146.2381	79.334099	1089.1368	-167.96446	-181.02342	1071.8879	-111.83154	-126.73594	924.14832	-120.48046	-34.504967	1195.015	-251.33997	-100.02604	1212.7197	23.721714	-84.70208	1017.9206	126.26881	-12.250395	926.74097	177.11426	-92.055542	966.60175	162.46439	-237.21712	983.01703	92.528366	-249.60333	926.28412	139.17696	-318.50018	959.45105	135.51016	-186.1118	1197.16	-257.8071	-172.47255	1083.0994	-343.7644	-66.492943	896.401	-397.87457	-201.82278	946.10205	-342.27029	-288.80481	960.92902	-302.27673	-286.09573	892.76508	-325.11282	-353.55774	938.80554	-340.35767	54.917419	813.97577	-18.718143	-48.841957	845.94946	-288.70966	191.11053	878.72351	-168.59029	165.59364	875.88123	-254.96883
1801	18	-306.05774	1358.9751	-54.03466	-297.9906	1361.7494	-203.9783	-175.98502	1402.7559	-50.472706	-172.02219	1397.9897	-202.91382	-67.529968	1245.5887	-145.89296	78.585342	1089.1582	-166.1476	-182.60791	1070.6897	-112.94782	-127.46495	923.2702	-121.23866	-34.780876	1194.549	-250.68909	-103.81651	1211.7347	23.534655	-92.815697	1017.4403	126.9775	-23.201916	924.89325	179.26186	-102.22955	965.50409	163.62111	-246.8838	982.83484	91.677307	-260.17062	926.14044	138.2131	-328.79675	959.86127	133.51154	-186.39636	1196.551	-258.75336	-173.10667	1082.2025	-344.30411	-69.689384	893.68292	-397.13092	-205.00087	945.11847	-343.13513	-292.45508	961.05579	-304.25803	-290.16211	892.85956	-327.1712	-357.05017	939.86102	-343.25116	53.186535	813.86902	-18.847452	-46.834507	846.98279	-289.20737	191.16595	878.87207	-166.34322	166.54517	876.22711	-253.00542
1802	18.01	-308.15268	1357.9115	-55.736343	-299.11777	1360.7659	-205.63737	-178.13667	1401.6733	-51.21529	-173.22556	1397.0736	-203.51564	-69.003372	1244.8691	-145.47333	77.819344	1089.1943	-164.36308	-184.14	1069.4834	-114.0471	-128.16568	922.29456	-122.00724	-35.110493	1194.0931	-250.06679	-107.59019	1210.7498	23.405289	-100.98633	1017.1299	127.1801	-34.336189	923.14417	181.29283	-112.63844	964.39325	164.65724	-256.49176	982.52997	90.860611	-270.76691	926.00085	137.3195	-339.21133	960.25092	131.54507	-186.56935	1195.4277	-259.45081	-174.05936	1081.2251	-344.64307	-73.208664	890.93866	-396.44077	-208.39073	944.24066	-344.15106	-296.36935	961.25623	-306.38153	-294.47412	892.9848	-329.18451	-360.90424	940.86517	-345.90237	51.868454	813.34534	-17.944155	-46.073063	847.70447	-290.20731	191.23239	879.08197	-164.1077	167.43335	876.55511	-251.04106
